# xmcd
#
# Track frame offsets: 
#        150
#        13593
#        29761
#        42862
#        59381
#        78049
#        91961
#        107086
#        121473
#        135054
#        150128
#        164710
#        177816
#        191131
#        205104
#        219958
#        233567
#        253116
#        266430
#        284091
#
# Disc length: 4013 seconds
#
# Revision: 3
# Processed by: cddbd v1.5.2PL0 Copyright (c) Steve Scherf et al.
# Submitted via: ExactAudioCopy v0.95b4
#
DISCID=0b0fab14
DTITLE=Truck Stop - Country Freunde fuer immer - CD 1
DYEAR=2015
DGENRE=Country
TTITLE0=Der wilde, wilde Western (Neuaufnahme)
TTITLE1=Ich moecht' so gern Dave Dudley hoer'n (Neuaufnahme)
TTITLE2=Die Cowboys der Nation
TTITLE3=Freunde findest Du tief unten
TTITLE4=Route 66
TTITLE5=Rocky Mountains
TTITLE6=1000 Meilen Staub auf uns'ren Stiefeln
TTITLE7=Du bist immer auf Achse
TTITLE8=Tausend Meilen
TTITLE9=Weil ihr die Coutry-Music liebt
TTITLE10=Louisiana Ladies
TTITLE11=Trucker, Cowboy, Mann
TTITLE12=Arizona-Arizona
TTITLE13=Wilde Pferde, wilde Woelfe, wildes Land
TTITLE14=On the Road
TTITLE15=Maenner mit Hut
TTITLE16=Wohin der Wind Dich treibt
TTITLE17=Alte Adler sehen mehr
TTITLE18=Wenn es Nacht wird in Old Tucson
TTITLE19=Eine Gitarre und eine Ukulele
EXTD=
EXTT0=
EXTT1=
EXTT2=
EXTT3=
EXTT4=
EXTT5=
EXTT6=
EXTT7=
EXTT8=
EXTT9=
EXTT10=
EXTT11=
EXTT12=
EXTT13=
EXTT14=
EXTT15=
EXTT16=
EXTT17=
EXTT18=
EXTT19=
PLAYORDER=
